<svg xmlns="http://www.w3.org/2000/svg" width="800" height="450" viewBox="0 0 800 450">
  <defs>
    <linearGradient id="bg" x1="0%" y1="0%" x2="100%" y2="100%">
      <stop offset="0%" style="stop-color:#1a0a2e"/>
      <stop offset="100%" style="stop-color:#2d1b69"/>
    </linearGradient>
  </defs>
  <rect width="800" height="450" fill="url(#bg)"/>
  <rect x="20" y="20" width="760" height="50" rx="8" fill="#3c1f7b" opacity="0.8"/>
  <rect x="20" y="90" width="370" height="340" rx="8" fill="#3c1f7b" opacity="0.3"/>
  <rect x="40" y="110" width="330" height="25" rx="4" fill="#7c3aed" opacity="0.5"/>
  <rect x="40" y="150" width="330" height="150" rx="8" fill="#5b21b6" opacity="0.2"/>
  <rect x="60" y="170" width="100" height="110" rx="4" fill="#7c3aed" opacity="0.2"/>
  <rect x="180" y="170" width="100" height="110" rx="4" fill="#7c3aed" opacity="0.15"/>
  <rect x="300" y="170" width="50" height="110" rx="4" fill="#7c3aed" opacity="0.25"/>
  <rect x="40" y="320" width="330" height="90" rx="6" fill="#5b21b6" opacity="0.2"/>
  <rect x="60" y="340" width="200" height="15" rx="3" fill="#7c3aed" opacity="0.3"/>
  <rect x="60" y="365" width="250" height="15" rx="3" fill="#7c3aed" opacity="0.2"/>
  <rect x="60" y="390" width="180" height="15" rx="3" fill="#7c3aed" opacity="0.25"/>
  <rect x="410" y="90" width="370" height="340" rx="8" fill="#3c1f7b" opacity="0.3"/>
  <rect x="430" y="110" width="330" height="25" rx="4" fill="#7c3aed" opacity="0.5"/>
  <rect x="430" y="150" width="330" height="260" rx="8" fill="#5b21b6" opacity="0.15"/>
  <circle cx="595" cy="280" r="80" fill="#7c3aed" opacity="0.15" stroke="#7c3aed" stroke-width="2" stroke-opacity="0.3"/>
  <circle cx="595" cy="280" r="50" fill="#7c3aed" opacity="0.1" stroke="#7c3aed" stroke-width="2" stroke-opacity="0.2"/>
  <text x="400" y="440" text-anchor="middle" fill="#7c3aed" font-family="sans-serif" font-size="14" opacity="0.7">POS System — Sales Reports</text>
</svg>