<svg xmlns="http://www.w3.org/2000/svg" width="800" height="450" viewBox="0 0 800 450">
  <defs>
    <linearGradient id="bg" x1="0%" y1="0%" x2="100%" y2="100%">
      <stop offset="0%" style="stop-color:#1a0a0a"/>
      <stop offset="100%" style="stop-color:#2d1f0e"/>
    </linearGradient>
  </defs>
  <rect width="800" height="450" fill="url(#bg)"/>
  <rect x="20" y="20" width="760" height="50" rx="8" fill="#92400e" opacity="0.4"/>
  <circle cx="50" cy="45" r="12" fill="#f59e0b"/>
  <rect x="80" y="35" width="180" height="20" rx="4" fill="#b45309" opacity="0.5"/>
  <rect x="580" y="30" width="80" height="30" rx="15" fill="#f59e0b" opacity="0.8"/>
  <rect x="670" y="30" width="80" height="30" rx="15" fill="#b45309" opacity="0.6"/>
  <rect x="20" y="90" width="760" height="200" rx="8" fill="#92400e" opacity="0.2"/>
  <rect x="40" y="110" width="350" height="160" rx="8" fill="#b45309" opacity="0.15"/>
  <rect x="60" y="130" width="280" height="30" rx="4" fill="#f59e0b" opacity="0.5"/>
  <rect x="60" y="170" width="310" height="15" rx="3" fill="#b45309" opacity="0.3"/>
  <rect x="60" y="195" width="290" height="15" rx="3" fill="#b45309" opacity="0.3"/>
  <rect x="60" y="220" width="140" height="35" rx="6" fill="#f59e0b"/>
  <rect x="430" y="110" width="330" height="160" rx="8" fill="#b45309" opacity="0.15"/>
  <rect x="450" y="130" width="290" height="120" rx="8" fill="#92400e" opacity="0.3"/>
  <rect x="20" y="310" width="245" height="120" rx="8" fill="#92400e" opacity="0.3"/>
  <rect x="40" y="330" width="205" height="20" rx="4" fill="#f59e0b" opacity="0.4"/>
  <rect x="40" y="360" width="205" height="50" rx="4" fill="#b45309" opacity="0.15"/>
  <rect x="280" y="310" width="245" height="120" rx="8" fill="#92400e" opacity="0.3"/>
  <rect x="300" y="330" width="205" height="20" rx="4" fill="#f59e0b" opacity="0.4"/>
  <rect x="300" y="360" width="205" height="50" rx="4" fill="#b45309" opacity="0.15"/>
  <rect x="540" y="310" width="240" height="120" rx="8" fill="#92400e" opacity="0.3"/>
  <rect x="560" y="330" width="200" height="20" rx="4" fill="#f59e0b" opacity="0.4"/>
  <rect x="560" y="360" width="200" height="50" rx="4" fill="#b45309" opacity="0.15"/>
  <text x="400" y="440" text-anchor="middle" fill="#f59e0b" font-family="sans-serif" font-size="14" opacity="0.7">RMHN — Landing Page</text>
</svg>